<svg width="367" height="419" viewBox="0 0 367 419" fill="none" xmlns="http://www.w3.org/2000/svg">
<circle cx="156" cy="413" r="6" fill="white"/>
<circle cx="57" cy="395" r="3" fill="white"/>
<circle cx="227" cy="385" r="10" fill="white"/>
<circle cx="93" cy="353" r="7" fill="white"/>
<circle cx="312" cy="353" r="20" fill="white"/>
<circle cx="10" cy="310" r="10" fill="white"/>
<path d="M137.177 143.084C102.488 166.405 92.314 218.168 119.598 255.51C147.935 294.298 200.254 295.905 230.191 273.257C255.89 253.82 270.404 220.425 261.244 187.588C261.244 187.588 270.526 239.289 219.646 258.487C200.103 265.858 161.657 259.703 147.334 228.893C135.205 202.794 141.998 178.029 161.819 165.798C173.623 158.516 192.462 160.929 202.124 170.191C219.028 186.395 213.924 209.91 204.941 218.855C193.749 230.001 179.859 226.796 179.859 226.796C179.859 226.796 218.579 247.096 234.524 207.792C250.229 169.08 219.54 129.568 178.57 129.568C165.432 129.568 151.238 133.631 137.177 143.084Z" fill="white"/>
<circle cx="361" cy="285" r="6" fill="white"/>
<circle cx="16" cy="205" r="6" fill="white"/>
<circle cx="356" cy="200" r="3" fill="white"/>
<circle cx="54" cy="134" r="3" fill="white"/>
<circle cx="346" cy="103" r="14" fill="white"/>
<circle cx="30" cy="68" r="20" fill="white"/>
<circle cx="276" cy="33" r="7" fill="white"/>
<circle cx="135" cy="6" r="6" fill="white"/>
</svg>
