<svg width="370" height="419" viewBox="0 0 370 419" fill="none" xmlns="http://www.w3.org/2000/svg">
<circle cx="97" cy="47" r="6" fill="#101010" fill-opacity="0.08"/>
<g clip-path="url(#clip0_1329_20871)">
<path d="M179.714 278.619C179.113 279.342 178.303 279.862 177.395 280.11C176.487 280.358 175.524 280.322 174.637 280.006C173.751 279.69 172.983 279.109 172.438 278.343C171.893 277.577 171.597 276.662 171.591 275.723C171.329 275.328 171.14 275.045 170.878 274.65C168.582 273.777 166.077 273.607 163.684 274.164C161.29 274.72 159.118 275.978 157.446 277.774C155.773 279.57 154.676 281.824 154.296 284.246C153.915 286.669 154.269 289.149 155.31 291.37C161.058 303.946 166.058 318.004 178.786 324.853C126.961 308.95 87.1847 262.145 79.2307 208.742C81.7505 198.272 80.0756 186.405 73.4817 177.715C71.5016 182.229 64.7607 183.972 63.489 178.066C63.1244 175.676 62.7807 173.286 62.4159 170.896C36.4606 171.277 44.1764 206.881 76.2276 209.628C77.8452 219.738 80.5176 229.652 84.2013 239.208C77.7172 231.877 69.5815 226.186 60.4634 222.605C51.774 219.477 41.9961 219.534 32.6107 218.881C21.1852 218.073 14.4065 231.635 22.1927 240.007C28.1979 236.623 35.765 242.358 31.6732 248.754C48.6777 261.572 72.4294 264.459 92.1709 256.635C102.041 275.134 115.75 291.322 132.384 304.119C112.034 290.159 89.9551 305.532 70.404 312.531C69.0633 312.888 67.856 313.628 66.9293 314.659C66.0026 315.689 65.3966 316.967 65.1851 318.336C64.9737 319.704 65.166 321.105 65.7386 322.366C66.3112 323.627 67.2393 324.695 68.4097 325.439C70.8777 324.264 73.4566 323.336 76.1084 322.669C77.3592 322.364 78.6739 322.452 79.8724 322.922C81.0708 323.392 82.0943 324.22 82.8025 325.293C83.5107 326.366 83.869 327.631 83.8283 328.916C83.7875 330.2 83.3498 331.44 82.5749 332.466C105.73 341.036 133.208 333.734 149.695 315.561C158.867 320.716 168.552 324.907 178.592 328.065L203.158 301.178C202.946 300.809 202.716 300.441 202.496 300.082C200.379 302.713 197.947 305.076 195.255 307.118C193.457 293.426 194.124 284.708 179.715 278.619L179.714 278.619Z" fill="#F2F2F2"/>
<path d="M237.875 310.215C238.706 310.658 239.652 310.835 240.587 310.723C241.522 310.611 242.4 310.215 243.101 309.588C243.803 308.962 244.295 308.135 244.51 307.221C244.725 306.306 244.653 305.348 244.304 304.475C244.397 304.011 244.465 303.678 244.558 303.213C246.354 301.54 248.611 300.441 251.037 300.055C253.464 299.67 255.951 300.017 258.179 301.051C260.407 302.085 262.275 303.759 263.543 305.859C264.811 307.96 265.422 310.39 265.297 312.839C264.728 326.649 265.412 341.551 256.213 352.684C298.198 318.45 317.342 260.132 304.52 207.68C298.229 198.932 295.294 187.311 298.115 176.781C301.656 180.217 308.557 179.294 307.503 173.346C306.937 170.995 306.351 168.651 305.786 166.3C329.968 156.885 336.282 192.763 307.637 207.37C309.96 217.342 311.233 227.53 311.434 237.766C314.667 228.536 320.051 220.204 327.142 213.455C334.007 207.288 343.084 203.661 351.529 199.523C361.805 194.475 373.21 204.483 369.164 215.168C362.323 214.294 357.483 222.453 363.691 226.837C352.788 245.108 331.882 256.721 310.641 256.905C308.493 277.753 301.916 297.905 291.349 316.017C304.918 295.429 331.178 301.357 351.93 300.48C353.307 300.306 354.705 300.537 355.953 301.143C357.201 301.748 358.245 302.704 358.958 303.891C359.671 305.079 360.023 306.449 359.969 307.832C359.916 309.216 359.46 310.555 358.657 311.684C355.927 311.524 353.188 311.635 350.48 312.016C349.206 312.204 348.022 312.781 347.09 313.667C346.157 314.553 345.523 315.706 345.272 316.966C345.022 318.226 345.168 319.533 345.692 320.707C346.215 321.881 347.089 322.865 348.195 323.523C329.99 340.176 301.781 343.755 279.642 333.129C273.096 341.356 265.711 348.882 257.606 355.586L224.691 339.93C224.748 339.509 224.822 339.082 224.89 338.667C227.845 340.307 230.991 341.58 234.256 342.457C230.745 329.101 226.832 321.278 237.874 310.215H237.875Z" fill="#F2F2F2"/>
<path d="M267.498 419H220.483L212.599 380.104L210.042 419H166.369C166.386 388.455 167.981 357.93 171.147 327.549L171.688 325.709L172.543 322.766L173.084 320.919L182.122 289.952L182.836 287.495H237.256C240.387 290.43 243.276 293.613 245.893 297.013C246.779 298.14 247.705 299.361 248.654 300.676C249.313 301.608 249.996 302.586 250.678 303.612C256.742 312.619 261.274 322.564 264.093 333.044V333.052C264.572 334.844 264.995 336.679 265.364 338.555V338.562C265.693 340.23 265.984 341.921 266.211 343.65C266.384 344.911 266.533 346.187 266.643 347.478C267.297 354.634 267.067 361.842 265.96 368.942L267.498 419Z" fill="#404040"/>
<path d="M48.4778 226.066C49.954 224.336 49.1297 221.216 46.6366 219.099C44.1435 216.981 40.9257 216.668 39.4494 218.398C37.9731 220.129 38.7974 223.248 41.2906 225.366C43.7837 227.483 47.0015 227.797 48.4778 226.066Z" fill="#E6E6E6"/>
<path d="M60.3091 216.919C61.8528 215.545 62.3272 213.561 61.3687 212.49C60.4103 211.418 58.3818 211.664 56.8381 213.039C55.2944 214.414 54.82 216.397 55.7785 217.468C56.737 218.54 58.7654 218.294 60.3091 216.919Z" fill="#FF6584"/>
<path d="M94.023 213.756C95.5667 212.381 96.0411 210.398 95.0826 209.326C94.1241 208.255 92.0957 208.501 90.552 209.875C89.0083 211.25 88.5338 213.233 89.4923 214.305C90.4508 215.376 92.4793 215.131 94.023 213.756Z" fill="#E6E6E6"/>
<path d="M78.9045 213.41C80.3808 211.679 79.5565 208.56 77.0634 206.442C74.5703 204.325 71.3524 204.011 69.8762 205.742C68.3999 207.472 69.2242 210.592 71.7173 212.709C74.2104 214.827 77.4283 215.14 78.9045 213.41Z" fill="#FF6584"/>
<path d="M30.2574 208.805C31.8011 207.43 32.2755 205.447 31.317 204.375C30.3585 203.304 28.3301 203.549 26.7864 204.924C25.2426 206.299 24.7682 208.282 25.7267 209.354C26.6852 210.425 28.7137 210.179 30.2574 208.805Z" fill="#3F3D56"/>
<path d="M25.8352 194.678C27.3115 192.948 26.4872 189.828 23.9941 187.711C21.5009 185.593 18.2831 185.28 16.8068 187.01C15.3306 188.741 16.1549 191.86 18.648 193.978C21.1411 196.095 24.3589 196.409 25.8352 194.678Z" fill="#3F3D56"/>
<path d="M186.036 165.006C186.973 164.911 187.858 164.532 188.572 163.919C189.285 163.306 189.792 162.489 190.025 161.578C190.257 160.668 190.203 159.708 189.871 158.829C189.538 157.95 188.943 157.195 188.166 156.664C187.984 156.227 187.854 155.913 187.672 155.476C188.228 153.087 189.487 150.919 191.286 149.249C193.085 147.579 195.343 146.484 197.771 146.103C200.198 145.721 202.685 146.072 204.911 147.11C207.137 148.148 209.002 149.826 210.266 151.929C217.511 163.709 226.405 175.7 224.99 190.06C240.715 138.283 224.02 79.2202 184.067 42.8104C173.956 39.0488 165.026 31.0347 161.484 20.7232C166.343 21.6058 171.557 16.9999 167.358 12.6489C165.575 11.0123 163.779 9.39252 161.996 7.75577C176.809 -13.5138 202.098 12.7575 186.481 40.8199C193.982 47.8054 200.731 55.5542 206.618 63.9401C204.145 54.4789 203.958 44.5671 206.073 35.0199C208.326 26.0808 213.835 18.0201 218.534 9.88692C224.243 -0.0208604 239.303 1.94281 241.915 13.0634C235.748 16.1441 236.289 25.6097 243.892 25.7958C245.05 47.0288 234.184 68.2997 216.654 80.2697C226.52 98.7714 232.321 119.159 233.67 140.073C233.43 115.434 258.541 105.745 275.279 93.4721C276.325 92.5623 277.614 91.976 278.988 91.7846C280.363 91.5933 281.763 91.8053 283.019 92.3946C284.275 92.984 285.332 93.9253 286.061 95.1038C286.79 96.2822 287.159 97.6468 287.124 99.0311C284.768 100.417 282.556 102.033 280.521 103.856C279.569 104.721 278.908 105.858 278.629 107.113C278.35 108.367 278.467 109.677 278.964 110.862C279.46 112.048 280.312 113.051 281.402 113.734C282.492 114.418 283.768 114.748 285.054 114.68C279.246 138.631 257.829 157.296 233.513 160.792C232.676 171.263 230.751 181.619 227.768 191.693L191.696 197.009C191.508 196.628 191.33 196.232 191.155 195.849C194.525 195.567 197.847 194.873 201.048 193.785C190.67 184.651 183.05 180.333 186.035 165.006L186.036 165.006Z" fill="#F2F2F2"/>
<path d="M222.316 153.465C205.894 153.465 196.986 151.463 193.875 147.188C191.13 143.417 192.971 138.441 195.102 132.68C196.633 128.538 198.369 123.845 198.369 119.199C198.369 96.6053 209.85 85.1489 232.494 85.1489C243.76 85.1489 255.857 91.1206 264.853 101.123C273.031 110.217 277.105 121.101 276.031 130.983C275.149 139.088 271.369 144.418 264.132 147.757L263.709 147.953L263.589 147.503C262.964 145.177 261.906 142.989 260.471 141.053C260.332 144.092 259.564 147.07 258.216 149.799L258.139 149.954L257.972 150.002C249.782 152.33 240.062 152.96 232.509 153.249C228.833 153.392 225.435 153.464 222.316 153.465Z" fill="#404040"/>
<path d="M226.792 184.946C226.162 183.099 225.101 181.43 223.695 180.075C222.289 178.72 220.58 177.719 218.709 177.156C216.838 176.592 214.859 176.482 212.937 176.834C211.015 177.186 209.205 177.99 207.656 179.18L153.639 211.405L136.736 170.252C138.164 168.162 138.892 165.675 138.815 163.146C138.739 160.618 137.862 158.178 136.31 156.178C134.758 154.178 132.611 152.72 130.177 152.012C127.743 151.305 125.147 151.384 122.761 152.24C120.376 153.096 118.323 154.683 116.897 156.775C115.472 158.867 114.747 161.355 114.826 163.884C114.906 166.412 115.786 168.85 117.34 170.849C118.894 172.847 121.043 174.303 123.477 175.008C124.519 186.875 130.309 239.916 150.451 237.988C167.381 236.367 209.425 208.428 222.484 198.741C224.573 197.193 226.116 195.023 226.89 192.543C227.664 190.064 227.63 187.404 226.792 184.946Z" fill="#FFB6B6"/>
<path d="M115.67 202.319C117.214 200.944 117.689 198.961 116.73 197.89C115.772 196.818 113.743 197.064 112.199 198.439C110.656 199.814 110.181 201.797 111.14 202.868C112.098 203.94 114.127 203.694 115.67 202.319Z" fill="#3F3D56"/>
<path d="M54.9937 196.818C56.5374 195.443 57.0118 193.46 56.0533 192.388C55.0948 191.317 53.0664 191.563 51.5227 192.937C49.979 194.312 49.5045 196.295 50.463 197.367C51.4215 198.438 53.45 198.193 54.9937 196.818Z" fill="#E6E6E6"/>
<path d="M214.373 159.755L240.274 158.424L252.304 177.391C252.304 177.391 274.939 181.167 273.37 207.781C271.801 234.396 245.83 257.75 245.83 257.75L246.94 271.609L245.012 277.106L245.259 280.193L247.889 283.462L248.16 286.843L245.83 292.191L248.999 297.313L182.369 290.872L179.933 282.015L183.487 277.26L181.502 271.057L184.486 265.09L186.043 246.139C186.043 246.139 169.016 220.615 188.562 201.39L196.407 188.083L205.185 177.397L214.373 159.755Z" fill="#101010"/>
<path d="M3.54336 134.944C4.94409 134.613 5.69324 132.716 5.21665 130.707C4.74007 128.698 3.21821 127.337 1.81748 127.668C0.416758 127.999 -0.332398 129.896 0.144191 131.905C0.620779 133.914 2.14264 135.275 3.54336 134.944Z" fill="#3F3D56"/>
<path d="M3.77188 110.504C5.1726 110.173 5.92178 108.276 5.44519 106.267C4.9686 104.258 3.44672 102.897 2.046 103.228C0.645273 103.559 -0.103882 105.456 0.372706 107.465C0.849295 109.474 2.37115 110.835 3.77188 110.504Z" fill="#E6E6E6"/>
<path d="M227.249 154.4C242.407 154.4 254.694 142.139 254.694 127.015C254.694 111.891 242.407 99.6304 227.249 99.6304C212.092 99.6304 199.805 111.891 199.805 127.015C199.805 142.139 212.092 154.4 227.249 154.4Z" fill="#FFB6B6"/>
<path d="M223.575 125.355C221.21 125.355 218.846 125.289 216.484 125.155L216.062 125.132L216.117 124.714C216.465 122.1 216.269 119.442 215.542 116.907C214.306 119.794 212.468 122.384 210.15 124.506L210.019 124.625L209.843 124.606C203.427 123.906 197.069 122.749 190.818 121.144L190.579 121.083L190.531 120.841C190.064 118.554 189.823 116.226 189.81 113.892C189.81 106.6 192.459 100.462 197.271 96.61C202.507 92.4168 210.014 91.1272 218.416 92.9767H245.281C248.234 92.98 251.066 94.1522 253.154 96.236C255.243 98.3199 256.417 101.145 256.421 104.092V121.067L256.128 121.144C245.502 123.93 234.562 125.346 223.575 125.355Z" fill="#404040"/>
<path d="M14.8916 96.0682C17.9448 94.8889 19.7534 92.2149 18.9312 90.0955C18.109 87.9762 14.9674 87.2142 11.9141 88.3935C8.86089 89.5728 7.05226 92.2469 7.87446 94.3662C8.69665 96.4855 11.8383 97.2476 14.8916 96.0682Z" fill="#FF6584"/>
<path d="M37.2826 84.3232C38.6833 83.9924 39.4325 82.0955 38.9559 80.0863C38.4793 78.0772 36.9575 76.7167 35.5567 77.0475C34.156 77.3783 33.4069 79.2752 33.8834 81.2843C34.36 83.2934 35.8819 84.654 37.2826 84.3232Z" fill="#E6E6E6"/>
<path d="M17.0365 79.4169C18.4373 79.0861 19.1864 77.1892 18.7098 75.1801C18.2332 73.171 16.7114 71.8104 15.3106 72.1412C13.9099 72.4721 13.1608 74.369 13.6374 76.3781C14.1139 78.3872 15.6358 79.7478 17.0365 79.4169Z" fill="#FF6584"/>
<path d="M18.2255 63.3422C21.2787 62.1629 23.0874 59.4888 22.2652 57.3695C21.443 55.2501 18.3013 54.4881 15.2481 55.6674C12.1948 56.8467 10.3862 59.5208 11.2084 61.6401C12.0306 63.7595 15.1723 64.5215 18.2255 63.3422Z" fill="#E6E6E6"/>
<path d="M208.86 62.5338C210.903 61.5309 211.389 58.3414 209.944 55.4099C208.499 52.4784 205.671 50.915 203.627 51.9179C201.584 52.9209 201.098 56.1103 202.543 59.0418C203.988 61.9733 206.816 63.5367 208.86 62.5338Z" fill="#3F3D56"/>
<path d="M38.4955 56.9121C39.8962 56.5812 40.6454 54.6843 40.1688 52.6752C39.6922 50.6661 38.1704 49.3056 36.7696 49.6364C35.3689 49.9672 34.6197 51.8641 35.0963 53.8732C35.5729 55.8823 37.0948 57.2429 38.4955 56.9121Z" fill="#3F3D56"/>
<path d="M56.6698 58.4213C59.7231 57.242 61.5317 54.5679 60.7095 52.4486C59.8873 50.3292 56.7457 49.5672 53.6924 50.7465C50.6392 51.9258 48.8306 54.5999 49.6528 56.7192C50.475 58.8386 53.6166 59.6006 56.6698 58.4213Z" fill="#3F3D56"/>
<path d="M36.3063 94.8941C35.1037 95.333 34.1247 96.23 33.584 97.3882C33.0433 98.5465 32.9852 99.8715 33.4223 101.072L62.4039 180.421C62.8437 181.621 63.7426 182.598 64.9034 183.137C66.0642 183.677 67.3921 183.735 68.5957 183.299L181.078 142.395C182.281 141.956 183.26 141.059 183.801 139.901C184.341 138.743 184.399 137.418 183.962 136.217L154.981 56.8684C154.541 55.6684 153.642 54.6914 152.481 54.1519C151.32 53.6124 149.992 53.5543 148.789 53.9905L36.3063 94.8941Z" fill="#CCCCCC"/>
<path d="M139.214 153.244L70.3634 178.282C69.0679 178.751 67.6388 178.689 66.3895 178.108C65.1401 177.527 64.1727 176.476 63.6993 175.184L37.4132 103.216C36.9427 101.923 37.0053 100.497 37.5872 99.2507C38.1691 98.0041 39.2229 97.0387 40.5173 96.5663L146.644 57.974C147.939 57.5046 149.368 57.567 150.618 58.1477C151.867 58.7284 152.835 59.7799 153.308 61.0715L166.009 95.8458C170.07 107.003 169.53 119.313 164.506 130.073C159.483 140.834 150.387 149.167 139.214 153.244Z" fill="white"/>
<path d="M89.6728 101.253L73.3115 107.203C73.1063 107.277 72.8884 107.311 72.6702 107.301C72.452 107.292 72.2378 107.24 72.0399 107.148C71.8419 107.056 71.6641 106.926 71.5165 106.765C71.3689 106.605 71.2544 106.417 71.1796 106.212C71.1048 106.007 71.0712 105.79 71.0807 105.572C71.0901 105.354 71.1424 105.141 71.2346 104.943C71.3268 104.746 71.4571 104.568 71.6181 104.421C71.779 104.274 71.9675 104.159 72.1726 104.085L88.5339 98.135C88.9483 97.9843 89.4057 98.004 89.8055 98.1898C90.2053 98.3757 90.5148 98.7123 90.6658 99.1258C90.8168 99.5393 90.7971 99.9957 90.6108 100.395C90.4246 100.794 90.0872 101.102 89.6728 101.253H89.6728Z" fill="#101010"/>
<path d="M128.679 94.2921L75.6405 113.579C75.4353 113.654 75.2173 113.688 74.9989 113.679C74.7805 113.669 74.5661 113.617 74.368 113.525C74.1698 113.433 73.9917 113.303 73.844 113.143C73.6962 112.982 73.5816 112.794 73.5068 112.589C73.4319 112.384 73.3983 112.166 73.4078 111.949C73.4173 111.731 73.4698 111.517 73.5622 111.319C73.6546 111.122 73.7851 110.944 73.9463 110.797C74.1076 110.65 74.2963 110.535 74.5017 110.461L127.54 91.174C127.745 91.0994 127.963 91.0659 128.181 91.0753C128.399 91.0847 128.613 91.1369 128.811 91.2289C129.009 91.3209 129.187 91.4509 129.335 91.6115C129.482 91.7721 129.597 91.9601 129.672 92.1649C129.746 92.3696 129.78 92.587 129.771 92.8047C129.761 93.0224 129.709 93.2361 129.617 93.4337C129.524 93.6312 129.394 93.8087 129.233 93.956C129.072 94.1032 128.884 94.2175 128.679 94.2921Z" fill="#101010"/>
<path d="M131.351 101.612L78.3135 120.899C78.1083 120.973 77.8904 121.007 77.6722 120.997C77.454 120.988 77.2398 120.936 77.0418 120.844C76.8439 120.752 76.666 120.622 76.5184 120.461C76.3708 120.301 76.2564 120.113 76.1816 119.908C76.1068 119.703 76.0732 119.486 76.0826 119.268C76.092 119.05 76.1444 118.837 76.2366 118.639C76.3288 118.442 76.4591 118.264 76.62 118.117C76.781 117.969 76.9694 117.855 77.1746 117.781L130.213 98.4937C130.627 98.3436 131.084 98.3637 131.483 98.5496C131.883 98.7356 132.192 99.072 132.343 99.4852C132.493 99.8983 132.474 100.354 132.288 100.753C132.102 101.152 131.765 101.461 131.351 101.612Z" fill="#101010"/>
<path d="M134.025 108.931L80.9872 128.218C80.782 128.293 80.5639 128.326 80.3456 128.317C80.1272 128.308 79.9128 128.256 79.7146 128.164C79.5165 128.072 79.3384 127.942 79.1906 127.781C79.0429 127.621 78.9283 127.432 78.8535 127.228C78.7786 127.023 78.745 126.805 78.7545 126.587C78.764 126.369 78.8165 126.156 78.9089 125.958C79.0013 125.76 79.1318 125.583 79.293 125.435C79.4542 125.288 79.6429 125.174 79.8484 125.1L132.886 105.813C133.092 105.738 133.309 105.705 133.528 105.714C133.746 105.723 133.96 105.776 134.158 105.868C134.356 105.96 134.534 106.09 134.681 106.25C134.829 106.411 134.943 106.599 135.018 106.804C135.093 107.008 135.127 107.226 135.117 107.443C135.108 107.661 135.055 107.875 134.963 108.072C134.871 108.27 134.741 108.447 134.58 108.595C134.419 108.742 134.23 108.856 134.025 108.931Z" fill="#101010"/>
<path d="M136.698 116.25L83.6601 135.537C83.2457 135.688 82.7883 135.668 82.3885 135.482C81.9887 135.296 81.6793 134.96 81.5283 134.546C81.3772 134.133 81.397 133.676 81.5833 133.277C81.7695 132.879 82.1069 132.57 82.5213 132.419L135.559 113.132C135.764 113.057 135.982 113.024 136.201 113.033C136.419 113.043 136.633 113.095 136.831 113.187C137.029 113.279 137.207 113.409 137.354 113.57C137.502 113.73 137.616 113.918 137.691 114.123C137.766 114.328 137.8 114.545 137.79 114.763C137.781 114.98 137.728 115.194 137.636 115.392C137.544 115.589 137.414 115.767 137.253 115.914C137.092 116.061 136.903 116.175 136.698 116.25H136.698Z" fill="#101010"/>
<path d="M304.988 136.577L275.95 205.915C274.711 208.849 272.365 211.179 269.42 212.403C266.474 213.626 263.164 213.645 260.204 212.455C258.673 211.84 257.284 210.92 256.121 209.751C254.958 208.582 254.045 207.189 253.44 205.657C252.834 204.125 252.547 202.486 252.596 200.84C252.646 199.193 253.031 197.574 253.728 196.082L286.105 124.979L303.954 80.9476C302.411 79.4127 301.38 77.4413 301 75.3012C300.619 73.1611 300.909 70.956 301.828 68.9856C302.747 67.0152 304.252 65.3749 306.138 64.2877C308.025 63.2004 310.2 62.7189 312.37 62.9085C314.54 63.0982 316.599 63.9498 318.267 65.3476C319.935 66.7454 321.132 68.6217 321.694 70.7216C322.256 72.8215 322.156 75.0432 321.409 77.0847C320.662 79.1263 319.303 80.8888 317.516 82.1328L304.988 136.577Z" fill="#FFB6B6"/>
<path d="M179.362 43.3327C181.326 42.683 182.551 41.0511 182.098 39.6878C181.645 38.3245 179.685 37.746 177.721 38.3958C175.757 39.0455 174.532 40.6774 174.985 42.0407C175.438 43.404 177.398 43.9825 179.362 43.3327Z" fill="#E6E6E6"/>
<path d="M206.833 42.1374C208.797 41.4876 210.022 39.8557 209.569 38.4924C209.116 37.1292 207.157 36.5507 205.193 37.2005C203.229 37.8502 202.004 39.4821 202.457 40.8454C202.91 42.2087 204.869 42.7871 206.833 42.1374Z" fill="#3F3D56"/>
<path d="M182.486 22.779C184.45 22.1292 185.675 20.4973 185.222 19.134C184.769 17.7708 182.809 17.1923 180.845 17.8421C178.881 18.4918 177.656 20.1237 178.109 21.487C178.562 22.8503 180.522 23.4287 182.486 22.779Z" fill="#FF6584"/>
<path d="M200.579 24.753C202.623 23.7501 203.109 20.5606 201.664 17.6291C200.219 14.6976 197.391 13.1342 195.347 14.1372C193.303 15.1401 192.818 18.3296 194.263 21.2611C195.708 24.1926 198.536 25.756 200.579 24.753Z" fill="#E6E6E6"/>
<path d="M167.615 24.3072C169.658 23.3043 170.144 20.1148 168.699 17.1833C167.254 14.2519 164.426 12.6884 162.382 13.6914C160.338 14.6943 159.853 17.8838 161.298 20.8153C162.743 23.7468 165.571 25.3102 167.615 24.3072Z" fill="#FF6584"/>
<path d="M125.868 14.2316C127.833 13.5819 129.057 11.95 128.604 10.5867C128.151 9.22341 126.192 8.64498 124.228 9.29473C122.264 9.94448 121.039 11.5764 121.492 12.9396C121.945 14.3029 123.904 14.8814 125.868 14.2316Z" fill="#3F3D56"/>
<path d="M150.288 12.3176C152.252 11.6678 153.477 10.0359 153.024 8.67265C152.571 7.30936 150.612 6.7309 148.648 7.38065C146.684 8.0304 145.459 9.6623 145.912 11.0256C146.365 12.3889 148.324 12.9673 150.288 12.3176Z" fill="#E6E6E6"/>
</g>
<defs>
<clipPath id="clip0_1329_20871">
<rect width="370" height="419" fill="white"/>
</clipPath>
</defs>
</svg>
