<svg width="370" height="397" viewBox="0 0 370 397" fill="none" xmlns="http://www.w3.org/2000/svg">
<circle cx="367" cy="337" r="3" fill="#101010" fill-opacity="0.08"/>
<circle cx="35.5" cy="301.5" r="18.5" fill="#101010" fill-opacity="0.08"/>
<circle cx="6.5" cy="259.5" r="6.5" fill="#101010" fill-opacity="0.08"/>
<circle cx="353" cy="236" r="3" fill="#101010" fill-opacity="0.08"/>
<circle cx="26" cy="118" r="11" fill="#101010" fill-opacity="0.08"/>
<circle cx="334" cy="116" r="13" fill="#101010" fill-opacity="0.08"/>
<circle cx="290.5" cy="29.5" r="18.5" fill="#101010" fill-opacity="0.08"/>
<g clip-path="url(#clip0_1329_20825)">
<path d="M86.7213 349.567C91.6464 349.567 95.6389 345.58 95.6389 340.661C95.6389 335.742 91.6464 331.754 86.7213 331.754C81.7963 331.754 77.8037 335.742 77.8037 340.661C77.8037 345.58 81.7963 349.567 86.7213 349.567Z" fill="#F2F2F2"/>
<path d="M168.131 312.492C154.71 331.255 155.19 362.645 158.935 397H222.39L225.148 390.57L228.827 397H288.603C288.603 397 284.005 309.737 275.728 306.981C267.452 304.225 168.131 312.492 168.131 312.492Z" fill="#404040"/>
<path d="M37.1445 208.661C38.2468 210.5 39.7394 212.075 41.517 213.275C43.2946 214.476 45.3141 215.272 47.4332 215.608C49.5523 215.945 51.7195 215.813 53.7821 215.222C55.8447 214.632 57.7525 213.596 59.3712 212.189L104.616 238.109L102.929 211.089L60.2231 190.618C57.6766 188.059 54.2787 186.521 50.6731 186.297C47.0676 186.072 43.5049 187.177 40.6602 189.401C37.8154 191.625 35.8863 194.814 35.2384 198.364C34.5904 201.914 35.2686 205.578 37.1445 208.661Z" fill="#FFB8B8"/>
<path d="M245.654 124.806L251.948 136.856L295.484 156.241L284.04 266.859L279.224 278.314L281.826 288.262L275.552 295.603C281.85 301.295 282.65 307.253 279.224 313.416L259.175 318.004C259.175 318.004 147.701 327.905 157.096 310.655C167.361 291.808 169.975 236.146 147.314 206.402C128.076 181.149 142.846 148.382 142.846 148.382L188.48 134.76L205.265 124.806L245.654 124.806Z" fill="#101010"/>
<path d="M297.341 379.731C298.888 378.245 300.09 376.439 300.862 374.44C301.635 372.44 301.959 370.296 301.812 368.158C301.665 366.02 301.051 363.94 300.012 362.065C298.973 360.189 297.535 358.564 295.8 357.304L310.944 307.452L284.959 315.151L274.562 361.312C272.636 364.364 271.897 368.016 272.487 371.576C273.076 375.136 274.953 378.357 277.761 380.627C280.569 382.897 284.113 384.06 287.721 383.895C291.33 383.73 294.753 382.248 297.341 379.731Z" fill="#FFB8B8"/>
<path d="M283.48 153.452L295.483 156.241C295.483 156.241 345.096 252.657 333.14 271.028C321.185 289.399 306.539 350.222 306.539 350.222C306.539 350.222 284.877 345.92 276.6 334.897L291.757 262.761L276.123 202.136L283.48 153.452Z" fill="#101010"/>
<path d="M182.159 137.872C176.252 164.063 161.104 225.215 145.735 238.003C144.761 238.923 143.592 239.612 142.315 240.021C88.2939 253.166 70.9844 219.635 70.9844 219.635C70.9844 219.635 85.4614 212.588 85.8286 198.814L115.024 207.862L140.474 150.656L144.219 147.166L144.24 147.145L182.159 137.872Z" fill="#101010"/>
<path d="M55.7608 296.626L56.1918 141.343C56.2041 138.2 57.464 135.19 59.6951 132.974C61.9263 130.758 64.9465 129.516 68.0931 129.521L185.504 129.846C188.65 129.858 191.663 131.117 193.882 133.345C196.101 135.574 197.344 138.591 197.339 141.734L196.908 297.017C196.896 300.16 195.636 303.17 193.405 305.386C191.174 307.602 188.153 308.844 185.007 308.839L67.5963 308.514C64.4497 308.501 61.4364 307.243 59.2176 305.014C56.9988 302.786 55.7556 299.769 55.7608 296.626Z" fill="#E6E6E6"/>
<path d="M64.8966 249.749L65.1736 149.919C65.1851 146.976 66.365 144.157 68.4546 142.081C70.5441 140.006 73.3727 138.843 76.3196 138.848L177.224 139.127C180.171 139.138 182.993 140.317 185.071 142.404C187.149 144.491 188.314 147.316 188.309 150.26L187.925 288.441C187.914 291.385 186.734 294.204 184.644 296.279C182.554 298.355 179.726 299.518 176.779 299.513L114.271 299.34C101.144 299.289 88.5738 294.039 79.3176 284.742C70.0613 275.445 64.875 262.861 64.8966 249.749Z" fill="white"/>
<path d="M159.296 283.475C169.67 283.475 178.08 275.075 178.08 264.713C178.08 254.351 169.67 245.951 159.296 245.951C148.922 245.951 140.512 254.351 140.512 264.713C140.512 275.075 148.922 283.475 159.296 283.475Z" fill="#101010"/>
<path d="M156.734 274.478C156.41 274.478 156.09 274.402 155.799 274.257C155.509 274.112 155.257 273.902 155.062 273.643L149.938 266.818C149.773 266.599 149.653 266.349 149.584 266.083C149.516 265.818 149.501 265.541 149.539 265.27C149.578 264.998 149.67 264.737 149.81 264.501C149.95 264.265 150.135 264.059 150.354 263.894C150.574 263.729 150.824 263.61 151.09 263.542C151.356 263.474 151.633 263.459 151.905 263.498C152.177 263.537 152.438 263.629 152.674 263.769C152.91 263.909 153.117 264.094 153.281 264.314L156.634 268.778L165.245 255.877C165.396 255.648 165.592 255.451 165.82 255.298C166.048 255.145 166.304 255.038 166.574 254.984C166.843 254.929 167.121 254.929 167.391 254.982C167.66 255.035 167.917 255.141 168.146 255.293C168.375 255.445 168.571 255.641 168.724 255.869C168.877 256.098 168.983 256.354 169.036 256.623C169.09 256.893 169.09 257.17 169.036 257.439C168.982 257.709 168.875 257.965 168.722 258.193L158.473 273.548C158.287 273.826 158.038 274.055 157.745 274.217C157.453 274.378 157.126 274.468 156.792 274.477C156.773 274.477 156.753 274.478 156.734 274.478Z" fill="white"/>
<path d="M165.662 226.184H86.9825C85.7305 226.184 84.5297 225.687 83.6444 224.803C82.7591 223.919 82.2617 222.719 82.2617 221.469C82.2617 220.218 82.7591 219.019 83.6444 218.134C84.5297 217.25 85.7305 216.753 86.9825 216.753H165.662C166.914 216.753 168.115 217.25 169 218.134C169.885 219.019 170.383 220.218 170.383 221.469C170.383 222.719 169.885 223.919 169 224.803C168.115 225.687 166.914 226.184 165.662 226.184Z" fill="#101010"/>
<path d="M165.662 204.441H86.9825C85.7305 204.441 84.5297 203.945 83.6444 203.06C82.7591 202.176 82.2617 200.977 82.2617 199.726C82.2617 198.475 82.7591 197.276 83.6444 196.392C84.5297 195.508 85.7305 195.011 86.9825 195.011H165.662C166.914 195.011 168.115 195.508 169 196.392C169.885 197.276 170.383 198.475 170.383 199.726C170.383 200.977 169.885 202.176 169 203.06C168.115 203.945 166.914 204.441 165.662 204.441Z" fill="#101010"/>
<path d="M165.662 182.699H86.9825C85.7305 182.699 84.5297 182.202 83.6444 181.318C82.7591 180.433 82.2617 179.234 82.2617 177.983C82.2617 176.733 82.7591 175.533 83.6444 174.649C84.5297 173.765 85.7305 173.268 86.9825 173.268H165.662C166.914 173.268 168.115 173.765 169 174.649C169.885 175.533 170.383 176.733 170.383 177.983C170.383 179.234 169.885 180.433 169 181.318C168.115 182.202 166.914 182.699 165.662 182.699Z" fill="#101010"/>
<path d="M104.292 160.956H86.9825C85.7305 160.956 84.5297 160.459 83.6444 159.575C82.7591 158.691 82.2617 157.491 82.2617 156.241C82.2617 154.99 82.7591 153.791 83.6444 152.906C84.5297 152.022 85.7305 151.525 86.9825 151.525H104.292C105.544 151.525 106.745 152.022 107.63 152.906C108.515 153.791 109.013 154.99 109.013 156.241C109.013 157.491 108.515 158.691 107.63 159.575C106.745 160.459 105.544 160.956 104.292 160.956Z" fill="#101010"/>
<path d="M291.812 127.949C296.737 127.949 300.73 123.962 300.73 119.043C300.73 114.124 296.737 110.136 291.812 110.136C286.887 110.136 282.895 114.124 282.895 119.043C282.895 123.962 286.887 127.949 291.812 127.949Z" fill="#F2F2F2"/>
<path d="M119.242 93.3709C124.167 93.3709 128.159 89.3832 128.159 84.4642C128.159 79.5452 124.167 75.5576 119.242 75.5576C114.317 75.5576 110.324 79.5452 110.324 84.4642C110.324 89.3832 114.317 93.3709 119.242 93.3709Z" fill="#F2F2F2"/>
<path d="M222.389 116.465C240.166 116.465 254.576 102.071 254.576 84.3152C254.576 66.5594 240.166 52.1655 222.389 52.1655C204.613 52.1655 190.202 66.5594 190.202 84.3152C190.202 102.071 204.613 116.465 222.389 116.465Z" fill="#FFB8B8"/>
<path d="M236.679 37.2208C236.831 36.9011 237.074 36.6339 237.378 36.4535C237.683 36.2731 238.034 36.1877 238.388 36.2082C223.652 35.3278 208.13 37.0433 195.802 45.1543C192.816 47.1193 190 49.4631 186.75 50.8886C186.596 50.9575 186.463 51.0648 186.364 51.2001C186.264 51.3354 186.201 51.4942 186.181 51.661C186.161 51.8277 186.185 51.9969 186.249 52.1519C186.314 52.3069 186.418 52.4426 186.551 52.5458L186.908 52.8254C187.048 52.9357 187.156 53.0825 187.219 53.2497C187.283 53.417 187.299 53.5984 187.266 53.7741C187.233 53.9499 187.152 54.1132 187.033 54.2465C186.914 54.3797 186.76 54.4777 186.589 54.5299C186.41 54.5842 186.251 54.6884 186.13 54.83C186.009 54.9717 185.931 55.1451 185.905 55.3296C185.879 55.5142 185.907 55.7023 185.984 55.8717C186.062 56.0412 186.186 56.185 186.343 56.2861L189.079 58.0521C189.216 58.1395 189.33 58.26 189.409 58.4027C189.488 58.5453 189.53 58.7055 189.531 58.8685C189.532 59.0315 189.492 59.1921 189.414 59.3356C189.337 59.4791 189.224 59.6009 189.088 59.6898C188.856 59.8327 188.613 59.9559 188.36 60.0582C188.203 60.1171 188.064 60.2154 187.956 60.3437C187.848 60.472 187.775 60.6258 187.744 60.7905C187.713 60.9552 187.725 61.125 187.778 61.2838C187.832 61.4425 187.926 61.5847 188.051 61.6967C189.235 62.7501 190.144 64.0769 190.697 65.5615C191.609 67.9295 191.773 70.5084 191.927 73.0408C192.869 69.3868 196.862 67.2359 200.633 67.0174C204.404 66.7988 208.082 68.0417 211.753 68.9352C219.747 70.8755 228.049 71.1945 236.168 69.8733C233.411 75.4 235.737 81.9922 238.077 87.7074L245.653 84.4641C256.058 78.5978 248.81 103.413 244.921 106.82C252.863 109.57 273.65 79.0448 266.963 67.4659C263.484 61.4427 265.954 53.6743 259.115 47.9617C255.763 44.4372 249.07 46.0037 245.653 43.0745C244.308 41.9216 246.358 38.8371 244.51 38.1649C243.896 37.9416 236.781 36.9958 236.679 37.2208Z" fill="#404040"/>
</g>
<circle cx="98.5" cy="5.5" r="5.5" fill="#101010" fill-opacity="0.08"/>
<defs>
<clipPath id="clip0_1329_20825">
<rect width="300" height="361" fill="white" transform="translate(35 36)"/>
</clipPath>
</defs>
</svg>
