<svg width="370" height="373" viewBox="0 0 370 373" fill="none" xmlns="http://www.w3.org/2000/svg">
<circle cx="367" cy="354" r="3" fill="#101010" fill-opacity="0.08"/>
<circle cx="35.5" cy="318.5" r="18.5" fill="#101010" fill-opacity="0.08"/>
<circle cx="6.5" cy="276.5" r="6.5" fill="#101010" fill-opacity="0.08"/>
<circle cx="353" cy="253" r="3" fill="#101010" fill-opacity="0.08"/>
<circle cx="26" cy="135" r="11" fill="#101010" fill-opacity="0.08"/>
<circle cx="334" cy="133" r="13" fill="#101010" fill-opacity="0.08"/>
<circle cx="290.5" cy="46.5" r="18.5" fill="#101010" fill-opacity="0.08"/>
<circle cx="98.5" cy="22.5" r="5.5" fill="#101010" fill-opacity="0.08"/>
<path d="M141.262 216.249C141.262 216.249 124.715 251.858 139.664 323.534C143.59 342.359 150.77 373 150.77 373H183.202L190.434 304.861L196.175 373H230.376L239.523 307.501C239.523 307.501 252.583 234.101 223.459 220.959L141.262 216.249Z" fill="#404040"/>
<path d="M317.048 169.68C317.121 168.232 316.876 166.786 316.329 165.443C315.782 164.1 314.947 162.893 313.883 161.908C312.819 160.922 311.552 160.182 310.171 159.738C308.789 159.295 307.328 159.16 305.888 159.342L236.484 101.481L225.661 120.139L297.286 171.148C297.753 173.544 299.084 175.685 301.025 177.167C302.966 178.648 305.384 179.366 307.82 179.185C310.256 179.004 312.54 177.937 314.241 176.185C315.942 174.433 316.941 172.118 317.048 169.68Z" fill="#FFB6B6"/>
<path d="M324.099 194.146H296.681V184.592C296.681 180.959 298.125 177.474 300.696 174.905C303.267 172.336 306.754 170.893 310.39 170.893C314.026 170.893 317.513 172.336 320.084 174.905C322.655 177.474 324.099 180.959 324.099 184.592L324.099 194.146ZM297.288 193.54H323.492V184.592C323.492 181.12 322.112 177.789 319.654 175.334C317.197 172.879 313.865 171.499 310.39 171.499C306.915 171.499 303.582 172.879 301.125 175.334C298.668 177.789 297.288 181.12 297.288 184.592V193.54Z" fill="#404040"/>
<path d="M337.656 192.832V189.098L267.929 190.966L265.722 285.544L276.041 298.283L337.656 192.832Z" fill="#404040"/>
<path d="M350 191.518L274.423 193.237L276.041 298.283L348.977 290.427L350 191.518Z" fill="#101010"/>
<path d="M236.828 37.0405H166.622V78.5809H236.828V37.0405Z" fill="#404040"/>
<path d="M97.0691 43.7383H60.8721V31.1249C60.8721 26.3282 62.7788 21.728 66.173 18.3363C69.5671 14.9445 74.1705 13.0391 78.9706 13.0391C83.7706 13.0391 88.3741 14.9445 91.7682 18.3363C95.1624 21.728 97.0691 26.3282 97.0691 31.1249V43.7383ZM61.6734 42.9374H96.2678V31.1249C96.2678 26.5406 94.4454 22.1441 91.2015 18.9025C87.9577 15.661 83.5581 13.8399 78.9706 13.8399C74.3831 13.8399 69.9835 15.661 66.7397 18.9025C63.4958 22.1441 61.6734 26.5406 61.6734 31.1249V42.9374Z" fill="#404040"/>
<path d="M114.967 42.0037V37.0742L22.9136 39.5389L20 164.4L33.6238 181.217L114.967 42.0037Z" fill="#404040"/>
<path d="M131.263 40.2681L31.4873 42.5371L33.624 181.217L129.912 170.846L131.263 40.2681Z" fill="#101010"/>
<path d="M71.5498 19.6084C71.3964 21.05 71.5611 22.5078 72.0323 23.8789C72.5036 25.25 73.2701 26.5012 74.2776 27.5444C75.2851 28.5875 76.5093 29.3972 77.8638 29.9164C79.2184 30.4356 80.6704 30.6518 82.1176 30.5496L148.198 92.1748L160.041 74.1465L91.3624 19.2398C91.0294 16.8217 89.8204 14.6097 87.9644 13.0229C86.1084 11.4361 83.7344 10.5847 81.2922 10.6301C78.8501 10.6756 76.5095 11.6146 74.7139 13.2694C72.9183 14.9241 71.7925 17.1796 71.5498 19.6084Z" fill="#FFB6B6"/>
<path d="M220.466 90.5813L170.418 85.9712C154.724 97.4027 145.915 117.934 147.723 139.118C150.175 167.841 149.346 207.368 129.671 224.541C129.671 224.541 183.295 266.834 230.93 226.71C230.93 226.71 214.641 183.104 225.825 165.69C237.008 148.276 241.043 99.351 220.466 90.5813Z" fill="#101010"/>
<path d="M135.858 82.6552L151.534 66.5635C151.98 66.1057 152.52 65.7493 153.116 65.5186C153.712 65.2879 154.351 65.1884 154.99 65.2268C155.628 65.2651 156.25 65.4405 156.815 65.741C157.379 66.0414 157.872 66.4599 158.26 66.9679L171.85 84.768C174.181 87.0618 175.507 90.1856 175.537 93.4545C175.566 96.7235 174.298 99.8708 172.009 102.207C169.72 104.542 166.598 105.876 163.327 105.915C160.056 105.954 156.902 104.695 154.559 102.414L136.443 89.3629C135.924 88.989 135.493 88.5079 135.177 87.9522C134.861 87.3966 134.669 86.7795 134.613 86.1429C134.558 85.5063 134.64 84.8653 134.855 84.2634C135.07 83.6616 135.412 83.113 135.858 82.6552V82.6552Z" fill="#101010"/>
<path d="M249.333 110.301L234.576 127.238C234.156 127.72 233.637 128.106 233.055 128.37C232.472 128.633 231.84 128.768 231.2 128.765C230.561 128.762 229.93 128.622 229.349 128.353C228.769 128.084 228.254 127.694 227.838 127.208L213.279 110.19C210.824 108.029 209.326 104.984 209.115 101.721C208.903 98.4589 209.995 95.2457 212.15 92.7863C214.306 90.327 217.349 88.8222 220.614 88.6018C223.878 88.3815 227.096 89.4637 229.563 91.611L248.376 103.636C248.915 103.981 249.373 104.437 249.719 104.975C250.065 105.512 250.291 106.117 250.382 106.75C250.473 107.382 250.426 108.027 250.245 108.64C250.064 109.253 249.753 109.819 249.333 110.301Z" fill="#101010"/>
<path d="M198.954 77.6572C215.28 77.6572 228.515 64.4318 228.515 48.1174C228.515 31.8031 215.28 18.5776 198.954 18.5776C182.628 18.5776 169.394 31.8031 169.394 48.1174C169.394 64.4318 182.628 77.6572 198.954 77.6572Z" fill="#FFB6B6"/>
<path d="M185.343 34.9524C195.569 44.9668 213.365 45.9266 224.61 37.0703C227.731 47.8276 228.073 59.2 225.603 70.125C223.134 81.0501 217.933 91.1713 210.487 99.5433C216.743 101.802 223.944 100.316 229.535 96.716C235.127 93.116 239.267 87.6194 242.392 81.7519C250.127 67.227 252.064 49.4914 246.592 33.9731C241.119 18.4548 228.008 5.58688 212.08 1.42017C196.151 -2.74655 177.888 2.40038 167.246 14.9555C156.118 28.0842 154.315 47.3212 159.191 63.8221C164.068 80.323 174.764 94.4935 186.516 107.068C180.871 92.5634 177.128 77.3901 175.379 61.9258C174.782 56.6296 174.432 51.1704 175.929 46.0549C177.427 40.9395 181.112 36.1746 186.248 34.7373" fill="#404040"/>
</svg>
